<?xml version="1.0" encoding="UTF-8" standalone="no"?>
<svg
   version="1.1"
   width="1024px"
   height="1024px"
   style="shape-rendering:geometricPrecision; text-rendering:geometricPrecision; image-rendering:optimizeQuality; fill-rule:evenodd; clip-rule:evenodd"
   id="svg334"
   sodipodi:docname="50a556b6-8d65-4163-bdc1-b41366629772.svg"
   inkscape:version="1.2.2 (b0a8486541, 2022-12-01)"
   xmlns:inkscape="http://www.inkscape.org/namespaces/inkscape"
   xmlns:sodipodi="http://sodipodi.sourceforge.net/DTD/sodipodi-0.dtd"
   xmlns="http://www.w3.org/2000/svg"
   xmlns:svg="http://www.w3.org/2000/svg">
  <defs
     id="defs338" />
  <sodipodi:namedview
     id="namedview336"
     pagecolor="#ffffff"
     bordercolor="#000000"
     borderopacity="0.25"
     inkscape:showpageshadow="2"
     inkscape:pageopacity="0.0"
     inkscape:pagecheckerboard="0"
     inkscape:deskcolor="#d1d1d1"
     showgrid="false"
     inkscape:zoom="1.0029297"
     inkscape:cx="512.49854"
     inkscape:cy="404.81402"
     inkscape:window-width="2560"
     inkscape:window-height="1371"
     inkscape:window-x="0"
     inkscape:window-y="0"
     inkscape:window-maximized="1"
     inkscape:current-layer="svg334" />
  <g
     id="g196" />
  <g
     id="g200">
    <path
       style="opacity:1"
       fill="#18110d"
       d="M 509.5,159.5 C 511.582,159.472 513.416,160.139 515,161.5C 548.086,204.156 561.753,252.49 556,306.5C 565.209,315.706 572.875,326.039 579,337.5C 584.724,354.443 586.057,371.777 583,389.5C 582,395.167 581,400.833 580,406.5C 577.076,416.941 573.576,427.107 569.5,437C 567.567,437.783 566.067,437.283 565,435.5C 564.667,423.833 564.333,412.167 564,400.5C 563.277,384.721 556.943,371.721 545,361.5C 543.701,364.006 542.701,366.673 542,369.5C 539.931,370.264 537.764,370.764 535.5,371C 542.174,377.483 544.174,385.15 541.5,394C 533.911,395.231 526.244,395.897 518.5,396C 517.342,399.473 516.176,402.973 515,406.5C 514.084,409.959 512.084,410.959 509,409.5C 506.798,405.394 505.298,401.06 504.5,396.5C 497.825,396.666 491.158,396.5 484.5,396C 483.069,395.535 481.903,394.701 481,393.5C 479.156,385.064 480.99,377.564 486.5,371C 484.324,370.837 482.491,370.004 481,368.5C 480.197,365.756 479.197,363.089 478,360.5C 465.724,371.386 459.057,385.053 458,401.5C 457.667,413.167 457.333,424.833 457,436.5C 455.612,437.554 454.112,437.72 452.5,437C 440.289,409.735 435.789,381.235 439,351.5C 443.487,333.534 452.82,318.534 467,306.5C 460.555,251.241 474.721,202.241 509.5,159.5 Z"
       id="path198" />
  </g>
  <g
     id="g204"
     style="fill:#b3b3b3">
    <path
       style="opacity:1;fill:#b3b3b3"
       fill="#f5f0e3"
       d="M 521.5,373.5 C 529.125,372.06 533.958,375.06 536,382.5C 536.497,384.81 536.663,387.143 536.5,389.5C 530.402,390.117 524.735,389.45 519.5,387.5C 520.972,383.081 521.638,378.414 521.5,373.5 Z"
       id="path202" />
  </g>
  <g
     id="g208"
     style="fill:#b3b3b3">
    <path
       style="opacity:1;fill:#b3b3b3"
       fill="#f7f3e4"
       d="M 492.5,373.5 C 495.5,373.5 498.5,373.5 501.5,373.5C 502.098,378.813 502.431,384.146 502.5,389.5C 497.167,389.5 491.833,389.5 486.5,389.5C 486.074,383.171 488.074,377.838 492.5,373.5 Z"
       id="path206" />
  </g>
  <g
     id="g212"
     style="fill:#b3b3b3">
    <path
       style="opacity:1;fill:#b3b3b3"
       fill="#efe9dc"
       d="M 509.5,307.5 C 510.822,307.33 511.989,307.663 513,308.5C 515.728,319.328 516.895,330.328 516.5,341.5C 516.129,361.323 514.295,380.99 511,400.5C 507.89,379.962 506.057,359.295 505.5,338.5C 505.606,327.986 506.939,317.653 509.5,307.5 Z"
       id="path210" />
  </g>
  <g
     id="g216"
     style="fill:#b3b3b3">
    <path
       style="opacity:1;fill:#b3b3b3"
       fill="#f6f0e0"
       d="M 452.5,399.5 C 451.833,404.833 451.167,410.167 450.5,415.5C 445.453,394.791 443.62,373.791 445,352.5C 448.925,337.41 456.759,324.743 468.5,314.5C 472.031,327.65 474.198,340.983 475,354.5C 461.099,366.303 453.599,381.303 452.5,399.5 Z"
       id="path214" />
  </g>
  <g
     id="g220"
     style="fill:#b3b3b3">
    <path
       style="opacity:1;fill:#b3b3b3"
       fill="#f5eee1"
       d="M 553.5,313.5 C 572.604,331.301 580.771,353.301 578,379.5C 576.562,392.011 574.228,404.345 571,416.5C 571.328,402.808 569.328,389.474 565,376.5C 561.187,368.679 555.853,362.013 549,356.5C 547.924,354.933 547.091,353.266 546.5,351.5C 549.155,338.883 551.488,326.216 553.5,313.5 Z"
       id="path218" />
  </g>
  <g
     id="g224"
     style="fill:#b3b3b3">
    <path
       style="opacity:1;fill:#b3b3b3"
       fill="#f7f0e1"
       d="M 503.5,206.5 C 514.897,205.955 525.897,207.788 536.5,212C 548.229,239.989 552.396,269.155 549,299.5C 546.598,321.438 542.764,343.104 537.5,364.5C 532.463,364.97 527.463,365.637 522.5,366.5C 522.967,349.21 522.467,331.877 521,314.5C 520.218,307.241 516.718,301.908 510.5,298.5C 508.971,298.529 507.804,299.196 507,300.5C 501.083,313.15 498.583,326.483 499.5,340.5C 499.722,348.842 500.056,357.175 500.5,365.5C 495.838,365.038 491.171,364.538 486.5,364C 473.654,325.373 469.821,285.873 475,245.5C 476.919,235.489 479.919,225.823 484,216.5C 484.785,214.714 485.951,213.214 487.5,212C 492.715,209.429 498.048,207.596 503.5,206.5 Z"
       id="path222" />
  </g>
  <g
     id="g228">
    <path
       style="opacity:1"
       fill="#190e0a"
       d="M 504.5,236.5 C 523.873,235.374 533.04,244.374 532,263.5C 525.176,279.11 514.009,283.276 498.5,276C 486.5,264 486.5,252 498.5,240C 500.432,238.541 502.432,237.375 504.5,236.5 Z"
       id="path226" />
  </g>
  <g
     id="g232"
     style="fill:#666666">
    <path
       style="opacity:1;fill:#666666"
       fill="#f6f0e2"
       d="M 506.5,242.5 C 521.766,243.243 527.599,250.91 524,265.5C 518.5,273.664 511.333,275.498 502.5,271C 492.302,259.884 493.636,250.384 506.5,242.5 Z"
       id="path230" />
  </g>
  <g
     id="g236"
     style="fill:#b3b3b3">
    <path
       style="opacity:1;fill:#b3b3b3"
       fill="#f7f2e5"
       d="M 510.5,167.5 C 520.01,177.99 527.677,189.824 533.5,203C 525.608,201.534 517.608,200.367 509.5,199.5C 502.2,200.34 495.2,201.84 488.5,204C 492.128,197.245 495.628,190.412 499,183.5C 503.052,178.288 506.885,172.955 510.5,167.5 Z"
       id="path234" />
  </g>
  <g
     id="g240">
    <path
       style="opacity:1"
       fill="#a29a90"
       d="M 521.5,373.5 C 521.638,378.414 520.972,383.081 519.5,387.5C 519.532,382.609 520.199,377.943 521.5,373.5 Z"
       id="path238" />
  </g>
  <g
     id="g244">
    <path
       style="opacity:1"
       fill="#5f5b58"
       d="M 452.5,399.5 C 452.666,406.175 452.5,412.842 452,419.5C 450.812,418.437 450.312,417.103 450.5,415.5C 451.167,410.167 451.833,404.833 452.5,399.5 Z"
       id="path242" />
  </g>
  <g
     id="g248">
    <path
       style="opacity:1"
       fill="#130b07"
       d="M 485.5,415.5 C 487.144,415.286 488.644,415.62 490,416.5C 490.667,460.167 490.667,503.833 490,547.5C 488.688,549.658 487.022,549.991 485,548.5C 484.173,504.096 484.339,459.762 485.5,415.5 Z"
       id="path246" />
  </g>
  <g
     id="g252">
    <path
       style="opacity:1"
       fill="#1a110a"
       d="M 509.5,429.5 C 511.144,429.286 512.644,429.62 514,430.5C 514.667,455.5 514.667,480.5 514,505.5C 512.333,506.833 510.667,506.833 509,505.5C 508.177,480.094 508.344,454.761 509.5,429.5 Z"
       id="path250" />
  </g>
  <g
     id="g256">
    <path
       style="opacity:1"
       fill="#1f1610"
       d="M 487.5,422.5 C 489.374,462.988 489.874,503.655 489,544.5C 487.984,543.366 487.317,543.699 487,545.5C 486.432,504.497 486.599,463.497 487.5,422.5 Z"
       id="path254" />
  </g>
  <g
     id="g260">
    <path
       style="opacity:1"
       fill="#19110e"
       d="M 343.5,610.5 C 368.795,608.406 391.795,614.572 412.5,629C 414.019,630.351 415.352,631.851 416.5,633.5C 415.573,635.946 413.906,636.779 411.5,636C 384.09,616.599 354.423,612.266 322.5,623C 314.507,626.325 307.174,630.659 300.5,636C 295.316,641.518 289.816,646.684 284,651.5C 283.228,651.355 282.561,651.022 282,650.5C 281.333,648.833 281.333,647.167 282,645.5C 298.026,625.975 318.526,614.308 343.5,610.5 Z"
       id="path258" />
  </g>
  <g
     id="g264">
    <path
       style="opacity:1"
       fill="#161311"
       d="M 507.5,559.5 C 509.144,559.286 510.644,559.62 512,560.5C 502.445,606.942 484.112,649.609 457,688.5C 452.636,693.003 450.303,692.336 450,686.5C 468.227,661.72 482.56,634.72 493,605.5C 497.955,590.137 502.789,574.804 507.5,559.5 Z"
       id="path262" />
  </g>
  <g
     id="g268">
    <path
       style="opacity:1"
       fill="#180f0b"
       d="M 752.5,687.5 C 746.91,649.759 727.91,620.925 695.5,601C 671.545,588.88 646.545,585.88 620.5,592C 614.008,593.58 608.008,596.246 602.5,600C 600.866,600.494 599.199,600.66 597.5,600.5C 597.259,598.102 597.926,596.102 599.5,594.5C 618.037,583.685 638.037,579.852 659.5,583C 690.932,587.477 716.098,602.31 735,627.5C 751.285,649.078 759.285,673.412 759,700.5C 757.333,703.167 755.667,703.167 754,700.5C 753.825,695.981 753.325,691.647 752.5,687.5 Z"
       id="path266" />
  </g>
  <g
     id="g272">
    <path
       style="opacity:1"
       fill="#18100c"
       d="M 586.5,597.5 C 595.77,621.545 607.77,644.045 622.5,665C 669.011,655.334 704.178,671.168 728,712.5C 733.377,721.886 736.377,731.886 737,742.5C 735.951,743.517 734.784,743.684 733.5,743C 726.148,715.288 710.482,693.621 686.5,678C 667.345,667.191 647.345,665.025 626.5,671.5C 645.061,699.229 667.894,722.895 695,742.5C 695.986,744.925 695.319,746.591 693,747.5C 688.581,745.414 684.415,742.914 680.5,740C 657.358,721.193 637.358,699.526 620.5,675C 612.945,676.286 606.612,679.953 601.5,686C 596.656,686.623 595.322,684.623 597.5,680C 603.086,675.249 609.086,671.082 615.5,667.5C 587.082,624.262 569.082,576.929 561.5,525.5C 561.335,522.482 561.502,519.482 562,516.5C 563.938,515.14 565.604,515.473 567,517.5C 570.546,544.954 577.046,571.62 586.5,597.5 Z"
       id="path270" />
  </g>
  <g
     id="g276">
    <path
       style="opacity:1"
       fill="#150f0d"
       d="M 266.5,666.5 C 267.833,666.5 269.167,666.5 270.5,666.5C 269.657,673.208 268.491,679.875 267,686.5C 263.21,688.426 261.377,687.26 261.5,683C 262.168,677.153 263.835,671.653 266.5,666.5 Z"
       id="path274" />
  </g>
  <g
     id="g280">
    <path
       style="opacity:1"
       fill="#170f0c"
       d="M 461.5,502.5 C 465.062,502.564 466.729,504.397 466.5,508C 461.253,573.579 444.253,635.745 415.5,694.5C 420.067,699.571 424.901,704.571 430,709.5C 434.735,715.142 438.568,721.308 441.5,728C 440.895,730.801 439.229,731.801 436.5,731C 415.47,695.077 384.136,679.744 342.5,685C 316.903,690.133 297.236,703.633 283.5,725.5C 288.589,729.222 293.922,732.722 299.5,736C 305.129,740.389 304.462,742.722 297.5,743C 269.701,723.447 239.701,719.447 207.5,731C 160.089,751.458 137.589,787.624 140,839.5C 138.867,841.211 137.367,841.711 135.5,841C 131.551,783.279 156.551,743.946 210.5,723C 232.253,716.935 253.919,717.101 275.5,723.5C 305.698,682.193 345.365,669.026 394.5,684C 399.412,686.372 404.245,688.872 409,691.5C 416.709,678.078 423.376,664.078 429,649.5C 445.547,601.709 456.381,552.709 461.5,502.5 Z"
       id="path278" />
  </g>
  <g
     id="g284">
    <path
       style="opacity:1"
       fill="#1a120f"
       d="M 188.5,849.5 C 187.957,849.56 187.624,849.893 187.5,850.5C 264.498,851.333 341.498,851.833 418.5,852C 419.38,853.356 419.714,854.856 419.5,856.5C 418.711,856.783 418.044,857.283 417.5,858C 304.167,858.667 190.833,858.667 77.5,858C 76.0652,855.733 76.3985,853.733 78.5,852C 112.505,851.833 146.505,851.333 180.5,850.5C 198.337,811.83 226.67,783.663 265.5,766C 313.711,744.783 362.711,742.95 412.5,760.5C 419.245,752.598 426.079,744.931 433,737.5C 436.164,737.767 437.164,739.433 436,742.5C 430.689,749.312 425.189,755.979 419.5,762.5C 435.648,769.401 450.314,778.568 463.5,790C 473.455,798.956 481.455,809.289 487.5,821C 486.034,825.454 483.868,825.621 481,821.5C 465.618,798.369 445.118,781.202 419.5,770C 417.246,768.85 414.913,768.516 412.5,769C 402.804,778.541 392.138,786.708 380.5,793.5C 377.918,793.253 377.085,791.92 378,789.5C 387.964,782.034 397.464,774.034 406.5,765.5C 342.124,745.229 283.124,755.395 229.5,796C 222.969,802.865 216.136,809.365 209,815.5C 200.366,825.771 193.533,837.104 188.5,849.5 Z"
       id="path282" />
  </g>
  <g
     id="g288">
    <path
       style="opacity:1"
       fill="#150c06"
       d="M 509.5,690.5 C 511.39,690.297 512.89,690.963 514,692.5C 514.667,717.167 514.667,741.833 514,766.5C 512.216,769.003 510.549,769.003 509,766.5C 508.177,741.094 508.344,715.761 509.5,690.5 Z"
       id="path286" />
  </g>
  <g
     id="g296">
    <path
       style="opacity:1"
       fill="#1b120e"
       d="M 543.5,537.5 C 546.818,572.107 553.318,606.107 563,639.5C 572.753,673.447 586.753,705.447 605,735.5C 629.187,773.038 663.02,797.538 706.5,809C 720.646,815.15 733.146,823.65 744,834.5C 745.227,840.454 743.394,841.788 738.5,838.5C 730.866,830.709 722.199,824.209 712.5,819C 698.754,813.863 685.088,808.529 671.5,803C 640.364,788.199 615.864,766.032 598,736.5C 575.935,698.651 559.935,658.318 550,615.5C 535.875,549.911 529.875,483.578 532,416.5C 534.276,413.936 536.276,414.27 538,417.5C 538.333,442.167 538.667,466.833 539,491.5C 540.27,507.006 541.77,522.339 543.5,537.5 Z"
       id="path294" />
  </g>
  <g
     id="g300">
    <path
       style="opacity:1"
       fill="#1c110d"
       d="M 512.5,645.5 C 514.766,645.141 516.599,645.808 518,647.5C 528.032,686.887 543.032,724.221 563,759.5C 582.807,790.304 608.64,814.638 640.5,832.5C 640.02,835.492 638.353,836.659 635.5,836C 601.869,818.37 575.369,793.203 556,760.5C 544.748,741.42 535.415,721.42 528,700.5C 522.263,683.957 516.93,667.29 512,650.5C 511.36,648.735 511.527,647.068 512.5,645.5 Z"
       id="path298" />
  </g>
  <g
     id="g304">
    <path
       style="opacity:1"
       fill="#1a120f"
       d="M 839.5,850.5 C 873.817,852.493 908.484,853.16 943.5,852.5C 946.124,854.198 946.124,856.031 943.5,858C 899.167,858.667 854.833,858.667 810.5,858C 809.144,855.586 809.478,853.419 811.5,851.5C 818.5,851.5 825.5,851.5 832.5,851.5C 831.568,846.207 829.735,841.207 827,836.5C 805.65,799.571 774.15,776.404 732.5,767C 710.251,762.987 689.251,766.32 669.5,777C 668.167,777.667 666.833,777.667 665.5,777C 664.065,774.733 664.398,772.733 666.5,771C 669.833,769.333 673.167,767.667 676.5,766C 704.35,756.917 732.017,757.583 759.5,768C 797.901,784.233 824.568,811.733 839.5,850.5 Z"
       id="path302" />
  </g>
  <g
     id="g308">
    <path
       style="opacity:1"
       fill="#180e0a"
       d="M 868.5,775.5 C 865.78,769.063 862.28,763.063 858,757.5C 827.084,719.75 788.084,707.083 741,719.5C 736.482,717.118 736.648,714.785 741.5,712.5C 792.799,700.212 834.299,715.212 866,757.5C 883.017,782.232 890.017,809.565 887,839.5C 885.612,840.554 884.112,840.72 882.5,840C 883.632,817.155 878.966,795.655 868.5,775.5 Z"
       id="path306" />
  </g>
  <g
     id="g312">
    <path
       style="opacity:1"
       fill="#170e0a"
       d="M 383.5,807.5 C 421.929,805.034 455.929,815.868 485.5,840C 492.856,847.23 498.856,855.396 503.5,864.5C 502.883,866.636 501.549,867.47 499.5,867C 473.862,831.258 438.862,813.425 394.5,813.5C 368.383,814.485 344.383,821.985 322.5,836C 317.833,837 316.5,835.333 318.5,831C 338.203,817.49 359.87,809.657 383.5,807.5 Z"
       id="path310" />
  </g>
  <g
     id="g316">
    <path
       style="opacity:1"
       fill="#e0dbcd"
       d="M 188.5,849.5 C 265.332,850.333 342.332,850.833 419.5,851C 421.475,852.678 421.475,854.512 419.5,856.5C 419.714,854.856 419.38,853.356 418.5,852C 341.498,851.833 264.498,851.333 187.5,850.5C 187.624,849.893 187.957,849.56 188.5,849.5 Z"
       id="path314" />
  </g>
  <g
     id="g320">
    <path
       style="opacity:1"
       fill="#291f19"
       d="M 839.5,850.5 C 839.833,850.5 840.167,850.5 840.5,850.5C 874.833,851.167 909.167,851.833 943.5,852.5C 908.484,853.16 873.817,852.493 839.5,850.5 Z"
       id="path318" />
  </g>
  <g
     id="g324">
    <path
       style="opacity:1"
       fill="#1a0f0e"
       d="M 798.5,852.5 C 801.167,854.167 801.167,855.833 798.5,857.5C 714.991,856.952 631.324,855.952 547.5,854.5C 631.332,853.833 714.999,853.167 798.5,852.5 Z"
       id="path322" />
  </g>
  <g
     id="g328">
    <path
       style="opacity:1"
       fill="#1d1614"
       d="M 798.5,852.5 C 714.999,853.167 631.332,853.833 547.5,854.5C 631.324,855.952 714.991,856.952 798.5,857.5C 715.001,858.666 631.334,858.832 547.5,858C 544.833,856 544.833,854 547.5,852C 631.334,851.168 715.001,851.334 798.5,852.5 Z"
       id="path326" />
  </g>
</svg>
